<svg xmlns="http://www.w3.org/2000/svg" xmlns:xlink="http://www.w3.org/1999/xlink" viewBox="0 0 91.52604748510547 91.52604748510547" height="91.52604748510547" width="91.52604748510547" data-background-color="#051726" preserveAspectRatio="xMidYMid meet" id="tight-bounds"><g><svg viewBox="0 0 91.52604748510547 91.52604748510547" height="91.52604748510547" width="91.52604748510547"><g><svg viewBox="0 0 91.52604748510547 91.52604748510547" height="91.52604748510547" width="91.52604748510547"><g id="textblocktransform"><svg viewBox="0 0 91.52604748510547 91.52604748510547" height="91.52604748510547" width="91.52604748510547" id="textblock"><g><svg viewBox="0 0 91.52604748510547 91.52604748510547" height="91.52604748510547" width="91.52604748510547"><g><svg viewBox="0 0 91.52604748510547 91.52604748510547" height="91.52604748510547" width="91.52604748510547"><g><svg/></g><g id="icon-0"><svg viewBox="0 0 91.52604748510547 91.52604748510547" height="91.52604748510547" width="91.52604748510547"><g><path d="M0 0" data-fill-palette-color="accent" fill="#000000" stroke="transparent"/></g><g transform="matrix(1,0,0,1,16.895686765291906,16.77944245531636)"><svg viewBox="0 0 57.734673954521654 57.967162574472745" height="57.967162574472745" width="57.734673954521654"><g><svg xmlns="http://www.w3.org/2000/svg" xmlns:xlink="http://www.w3.org/1999/xlink" xml:space="preserve" version="1.1" style="shape-rendering:geometricPrecision;text-rendering:geometricPrecision;image-rendering:optimizeQuality;" viewBox="0 0 745 748" x="0" y="0" fill-rule="evenodd" clip-rule="evenodd" height="57.967162574472745" width="57.734673954521654" class="icon-y-0" data-fill-palette-color="accent" id="y-0" fill="#000000"><g fill="#000000" data-fill-palette-color="accent"><path class="" d="M577 515c-1 6-4 12-6 18-3 5-5 11-8 17l65 65-90 91-66-65c-6 3-11 5-17 8-6 2-12 4-18 6l0 93-129 0 0-93c-6-2-12-4-18-6-5-3-11-5-17-8l-66 65-90-91 65-65c-3-6-5-12-8-17-2-6-4-12-6-18l-93 0 0-50-18 0-1 0c-15 0-29-6-39-16l0 0c-11-11-17-25-17-40l0 0c0-16 6-30 17-40 7-8 17-13 27-16 4-85 40-162 96-219 43-43 97-73 157-88l0-31 0-15 15 0 121 0 15 0 0 15 0 31c60 15 114 45 157 88 56 57 93 134 96 219 10 3 20 8 27 16 11 10 17 24 17 40l0 0c0 15-6 30-17 40l0 0c-10 10-24 16-39 16l-1 0-18 0 0 50-93 0z m-473-50l0 21 86 0 3 10c2 9 5 17 8 25 3 9 7 16 12 24l5 10-60 60 49 50 61-61 10 6c7 5 15 9 24 12 8 3 16 6 24 8l11 3 0 86 71 0 0-86 11-3c8-2 17-5 25-8 8-3 16-7 23-12l10-6 61 61 49-50-60-60 5-10c5-8 9-15 12-24 4-8 6-16 9-25l2-10 86 0 0-21-146 0 0 1c-3 27-15 52-35 72-23 23-55 36-87 36-33 0-65-13-88-36-19-20-32-45-35-72l0-1-146 0z m362 0l-36 0 0 1c-3 10-8 19-16 26-11 11-26 18-41 18-16 0-31-7-42-18-8-7-13-16-16-26l0-1-36 0c3 20 12 38 27 52 17 18 41 28 67 28 25 0 49-10 67-28 14-14 23-32 26-52z m-67 0l-53 0c2 3 3 5 5 7 6 6 13 9 22 9 8 0 15-3 21-9 2-2 4-4 5-7z m49-388l0 152c0 21-9 40-22 54l0 0c-14 13-33 22-53 22l0 0c-21 0-40-9-54-22l0 0c-13-14-22-33-22-54l0-152c-12 3-24 7-36 12l0 201c0 8-7 15-15 15-8 0-15-7-15-15l0-187c-26 14-49 31-70 52-50 51-83 120-87 196l299 0 298 0c-4-76-36-145-87-196-21-21-44-38-70-52l0 187c0 8-7 15-15 15-8 0-15-7-15-15l0-201c-12-5-24-9-36-12z m240 305l-631 0c-8 0-14 3-19 8-5 5-8 11-8 19l0 0c0 7 3 14 8 19 5 5 11 8 19 8l631 0c8 0 15-3 19-8l0 0c5-5 8-12 8-19l0 0c0-8-3-14-8-19-4-5-11-8-19-8z m-270-352l-91 0 0 199c0 13 5 24 13 33l0 0c9 8 20 13 33 13l0 0c12 0 24-5 32-13l0 0c8-9 13-20 13-33l0-199z" fill="#000000" data-fill-palette-color="accent"/></g></svg></g></svg></g></svg></g></svg></g></svg></g></svg></g></svg></g></svg></g><defs/></svg>