<?xml version="1.0" standalone="no"?>
<!DOCTYPE svg PUBLIC "-//W3C//DTD SVG 20010904//EN"
 "http://www.w3.org/TR/2001/REC-SVG-20010904/DTD/svg10.dtd">
<svg version="1.0" xmlns="http://www.w3.org/2000/svg"
 width="1108.000000pt" height="304.000000pt" viewBox="0 0 1108.000000 304.000000"
 preserveAspectRatio="xMidYMid meet">

<g transform="translate(0.000000,304.000000) scale(0.100000,-0.100000)"
fill="#000000" stroke="none">
<path d="M492 1949 c210 -215 384 -394 386 -398 1 -5 -168 -193 -378 -419
-209 -226 -380 -414 -380 -417 0 -3 98 -5 218 -5 l218 0 274 315 c150 173 276
315 280 315 3 0 140 -142 304 -315 l297 -315 257 0 257 0 -442 443 -442 442
350 367 c192 202 349 370 349 373 0 3 -96 5 -212 5 l-213 -1 -245 -274 -245
-274 -40 39 c-22 22 -139 145 -260 274 l-220 235 -248 1 -249 0 384 -391z"/>
<path d="M2849 2322 c-131 -35 -179 -102 -200 -277 -15 -131 -7 -370 16 -451
19 -69 60 -126 108 -151 84 -44 115 -46 720 -50 l577 -4 -2 -187 -3 -187 -575
0 -575 0 -3 98 c-2 87 -5 98 -20 93 -9 -3 -73 -17 -142 -31 -69 -13 -136 -27
-149 -30 -24 -6 -24 -7 -18 -98 14 -229 80 -304 287 -328 62 -7 299 -9 685 -7
566 4 593 5 652 25 82 27 119 55 147 112 37 71 46 146 46 365 -1 309 -26 388
-143 445 -91 45 -177 51 -769 51 l-518 0 0 175 0 175 540 0 540 0 0 -91 c0
-89 0 -91 23 -86 12 3 86 20 165 38 163 38 152 25 131 161 -21 135 -69 200
-171 235 -48 16 -109 18 -668 20 -558 2 -621 1 -681 -15z"/>
<path d="M5190 1525 l0 -815 190 0 190 0 0 355 0 355 595 0 595 0 0 -355 0
-355 190 0 190 0 0 815 0 815 -190 0 -190 0 0 -315 0 -315 -595 0 -595 0 0
315 0 315 -190 0 -190 0 0 -815z"/>
<path d="M7980 1525 l0 -815 190 0 190 0 0 815 0 815 -190 0 -190 0 0 -815z"/>
<path d="M9200 1524 l0 -815 728 4 c641 3 734 5 790 20 123 33 195 85 233 169
22 49 24 65 24 228 0 219 -9 255 -81 327 -44 45 -63 56 -129 75 l-76 22 57 13
c108 25 179 83 204 168 8 26 11 103 8 225 -3 166 -5 189 -25 225 -25 48 -67
91 -108 112 -80 42 -100 43 -877 43 l-748 0 0 -816z m1331 546 c19 -6 46 -22
60 -36 23 -24 24 -32 24 -149 0 -109 -2 -125 -20 -145 -44 -49 -53 -50 -555
-50 l-470 0 0 195 0 195 463 0 c275 0 476 -4 498 -10z m27 -666 c53 -21 65
-50 70 -174 5 -130 -8 -175 -58 -204 -34 -20 -52 -21 -517 -24 l-483 -3 0 211
0 210 475 0 c406 0 480 -2 513 -16z"/>
</g>
</svg>
